<svg width="130" height="152" viewBox="0 0 130 152" fill="none" xmlns="http://www.w3.org/2000/svg">
<path d="M86.1117 93.0113C85.1696 92.7041 79.2147 90.0279 82.9357 78.75H82.8824C92.582 68.7896 99.9945 52.7619 99.9945 36.9824C99.9945 12.7193 83.8127 0 65.0059 0C46.1873 0 30.0944 12.7134 30.0944 36.9824C30.0944 52.8269 37.4654 68.9196 47.2243 78.8564C51.0283 88.805 44.2261 92.4973 42.804 93.0113C23.1085 100.118 0 113.062 0 125.841V130.632C0 148.042 33.8569 152 65.1896 152C96.5697 152 130 148.042 130 130.632V125.841C130 112.678 106.779 99.8347 86.1117 93.0113ZM53.428 144.462C53.428 129.403 63.0447 109.074 63.0447 109.074L56.3906 103.87C56.3906 98.8954 65 93.6907 65 93.6907C65 93.6907 73.5857 98.9781 73.5857 103.87L66.9553 109.074C66.9553 109.074 76.572 129.326 76.572 144.627C76.572 147.026 53.428 146.47 53.428 144.462Z" fill="white"/>
</svg>
